<svg xmlns="http://www.w3.org/2000/svg" width="23.209" height="15.613" viewBox="0 0 23.209 15.613"><defs><style>.a{fill:#fff;}</style></defs><g transform="translate(0 -80.506)"><g transform="translate(0 80.506)"><path class="a" d="M22.837,81.637l-.76-.76a1.272,1.272,0,0,0-1.795,0L9.6,91.559,2.926,84.884a1.273,1.273,0,0,0-1.795,0l-.76.76a1.273,1.273,0,0,0,0,1.8l7.535,7.535a.287.287,0,0,0,.033.039l.76.748a1.253,1.253,0,0,0,.9.357h0a1.25,1.25,0,0,0,.9-.357l.761-.754a.192.192,0,0,0,.029-.032L22.837,83.43A1.268,1.268,0,0,0,22.837,81.637Z" transform="translate(0 -80.506)"/></g></g></svg>