<svg xmlns="http://www.w3.org/2000/svg" width="11" height="15" viewBox="0 0 11 15">
  <g id="lock" transform="translate(-52.315)">
    <g id="Groupe_3202" data-name="Groupe 3202" transform="translate(52.315)">
      <g id="Groupe_3201" data-name="Groupe 3201" transform="translate(0)">
        <path id="Tracé_22510" data-name="Tracé 22510" d="M61.839,5.939V4.366a4.038,4.038,0,1,0-8.049,0V5.939H52.315V15h11V5.939ZM57.815.879a3.363,3.363,0,0,1,3.214,3.487V5.939h-.81V4.366a2.412,2.412,0,1,0-4.808,0V5.939H54.6V4.366h0A3.363,3.363,0,0,1,57.815.879Zm1.594,3.487V5.939H56.221V4.366a1.6,1.6,0,1,1,3.188,0Zm-6.284,9.755v-7.3H62.5v7.3Z" transform="translate(-52.315)" fill="#292e94"/>
      </g>
    </g>
    <g id="Groupe_3204" data-name="Groupe 3204" transform="translate(56.253 8.038)">
      <g id="Groupe_3203" data-name="Groupe 3203" transform="translate(0)">
        <path id="Tracé_22511" data-name="Tracé 22511" d="M208.66,282.686a1.562,1.562,0,1,0-2.669,1.1l-.437,2.055h3.087l-.437-2.055A1.555,1.555,0,0,0,208.66,282.686Zm-1.22.533-.269.174.324,1.522H206.7l.324-1.522-.269-.174a.633.633,0,1,1,.684,0Z" transform="translate(-205.536 -281.124)" fill="#292e94"/>
      </g>
    </g>
  </g>
</svg>
