<svg xmlns="http://www.w3.org/2000/svg" width="12" height="20" viewBox="0 0 12 20">
  <path id="Tracé_22512" data-name="Tracé 22512" d="M1378.229,1865.035l-4.994,5.07a2.638,2.638,0,0,1-.331.315c-.285.2-.607,0-.658-.4a3.064,3.064,0,0,1-.008-.388q0-9.117,0-18.235c0-.771.1-.9.73-.9H1383.5c.629,0,.731.124.732.9q0,5.01,0,10.021,0,4.125,0,8.249c0,.307.017.618-.26.779s-.461-.06-.651-.253l-4.775-4.847C1378.452,1865.248,1378.351,1865.154,1378.229,1865.035Z" transform="translate(-1372.236 -1850.503)" fill="#292e94"/>
</svg>
